<svg width="512" height="512" xmlns="http://www.w3.org/2000/svg">

 <g>
  <title>background</title>
  <rect fill="none" id="canvas_background" height="402" width="582" y="-1" x="-1"/>
 </g>
 <g>
  <title>Layer 1</title>
  <rect fill="#565555" fill-rule="nonzero" y="0" x="-0.759193" width="512" id="rect2987" height="512"/>
  <path fill="#ffffff" id="path9-3" d="m453.92022,202.6575c-2.3616,-28.2727 -4.2345,-37.45175 -10.0656,-49.23545c-7.718,-15.60885 -18.8774,-23.83991 -34.769,-25.64885c-12.2941,-1.40212 -58.5271,-3.37099 -101.3212,-4.3228c-74.07586,-1.64389 -195.86854,1.52112 -211.41853,5.49976c-7.18333,1.84348 -12.57816,4.96756 -18.19048,10.54662c-9.82766,9.78671 -15.6856,23.81689 -18.03697,43.22142c-5.37949,44.31909 -5.49464,97.8543 -0.3096,143.77763c2.22344,19.74997 6.81489,32.58526 15.42846,43.1613c5.37949,6.59611 14.64041,12.20844 22.92265,13.88306c5.82085,1.17184 34.91617,2.80296 77.31115,4.32788c6.30571,0.22517 23.02756,0.61663 37.15111,0.86994c29.42664,0.52451 83.54261,0.20981 114.47761,-0.655c20.8079,-0.5821 58.7485,-2.12366 65.8422,-2.6712c1.9983,-0.15225 6.6203,-0.45032 10.269,-0.65757c12.2852,-0.6921 20.0928,-3.26352 27.4283,-9.03063c9.4977,-7.45838 16.8486,-21.24548 19.956,-37.40953c2.9399,-15.29669 4.9126,-42.54212 5.3053,-73.47068c0.3274,-25.84331 -0.1133,-39.79033 -1.9804,-62.1859zm-249.68003,110.8124l0,-114.93816l103.51913,57.46396l-103.51913,57.4742z"/>
 </g>
</svg>
